<?xml version="1.0" encoding="utf-8"?>
<!-- Generator: Adobe Illustrator 21.0.0, SVG Export Plug-In . SVG Version: 6.00 Build 0)  -->
<!DOCTYPE svg PUBLIC "-//W3C//DTD SVG 1.1//EN" "http://www.w3.org/Graphics/SVG/1.1/DTD/svg11.dtd">
<svg version="1.1" xmlns="http://www.w3.org/2000/svg" xmlns:xlink="http://www.w3.org/1999/xlink" x="0px" y="0px" width="900px"
	 height="900px" viewBox="0 0 900 900" enable-background="new 0 0 900 900" xml:space="preserve">
<g id="Layer_2">
	<rect x="0" fill="#FFFFFF" width="900" height="900"/>
	<g>
		<path d="M675,450c0,124.3-100.7,225-225,225S225,574.3,225,450c0-124.3,100.7-225,225-225S675,325.7,675,450z"/>
		<g>
			<path d="M208.4,299.5c0.1,1.3-1.4,2.4-2.2,3.2c-1.8,1.8-3.8,3.5-6.1,4.7c-2,1-4.2,1.4-6.4,1c-0.7,0-1.3-0.1-2-0.4l-0.8-0.3
				c-0.6-0.1-0.4-0.1-0.7,0.3l-2.5,3.5c-2.4,3.1-5.3,5.9-8.9,7.3c-3.3,1.3-7.3,1-9.9-1.4c-2.9-2.5-3.2-6.7-2.8-10.3
				c0.3-4,1.4-8.2,2.7-12.1l-3.5,4c-0.6,0.7-1.3,1.8-2.1,2l-2.5,3.1l-9.3,11l-2.5,3.1c-0.8,1-2.5,0.7-2.8-0.7
				c-0.1-0.7,0.1-1.1,0.6-1.7c4.9-5.6,9.6-11.3,14.4-16.9c0.3-0.4,0.7-0.7,1.1-0.8l1.8-2.2c1.4-1.7,2.9-3.3,4.2-5l2.4-2.5
				c0.3-0.6,0.7-1,1.1-1.4c0.1-0.4,0.3-1,0.6-1.4c1.5-4.3,3.2-8.5,5-12.7c3.1-7.3,6.3-14.6,10-21.6c2-3.6,4.2-7.7,7.4-10.3
				c1.4-1.3,3.1-2.1,5-2c2,0.3,3.8,1.7,4.5,3.5c0.6,1.4,0.4,3.1,0.1,4.6c-0.7,3.3-2.4,6.4-4.2,9.2c-2.2,3.9-4.9,7.4-7.7,10.9
				c-4,5.2-8.5,10.2-12.8,15.2c-1.4,1.8-2.9,3.5-4.5,5.3c-0.4,0.6-0.8,1-1.1,1.8l-0.6,1.7c-0.4,1-0.7,2.1-1.1,3.2
				c-1.1,3.5-2.2,7.1-2.8,10.9c-0.4,2.9-1,6.7,0.8,9.3c2.1,2.8,6.4,2.2,9.1,0.6c3.6-2,6.4-5.6,8.5-9.1c-2.9-2.2-4.3-6-4.6-9.6
				c-0.3-3.6,0.3-7.5,2-10.9c1.5-2.7,4.9-5.9,8.2-4.2c3.3,1.8,3.5,6.8,3.2,10c-0.4,4.7-2.4,9.3-4.6,13.5c2.1,0.8,4.3,0.8,6.4,0
				c2.8-1.4,5.2-3.8,7.3-6.1C206.4,297.8,208.1,298.2,208.4,299.5z M177.5,279.5l5-5.7c3.9-4.6,7.8-9.3,11.3-14.4
				c1.8-2.5,3.6-5.2,5-8c1.1-2,2.2-4.2,2.2-6.4c0.1-0.8,0-1.8-0.6-2.4c-0.7-0.7-1.7-1-2.7-0.6c-0.8,0.3-1.5,1-2.2,1.7
				c-2.1,2.1-3.8,4.9-5.2,7.5c-4.3,7.5-7.7,15.5-11,23.4L177.5,279.5z M193.5,290.5c0-1.7,0-3.8-0.7-5.4c-0.6-1.3-1.4-1.4-2.7-0.7
				c-1.3,0.7-2.1,2.1-2.7,3.3c-0.7,1.8-1.1,3.8-1.3,5.7c-0.1,3.3,0.4,7.3,3.1,9.8C191.2,299.3,193,295,193.5,290.5z"/>
			<path d="M261.4,298.9c0.7,1.1-0.3,2.1-1,2.9l-5.2,5.9c-3.6,3.8-7.4,7.5-11.4,11l-2.8,2.5c-0.8,0.7-1.1,2-1.5,2.9
				c-0.3,1-0.7,1.8-1.1,2.8c-0.6,1.7-1.3,3.3-2,5c-1.7,4-3.3,8.1-5.2,12c-1.5,3.2-3.3,6.4-5.7,8.9c-2.1,2.4-5,4.5-8.4,4.6
				c-3.9,0.3-6.6-2.8-6.6-6.7c0.1-5.3,3.9-10.2,7.4-14c3.1-3.3,6.7-6.3,10.3-9.1l5.7-4.6l2.8-2.5c0.4-0.3,1-0.6,1.1-1l0.4-1
				c2.8-7,5.6-14,8.5-20.9c-4.2,5.7-8.6,11.4-14.1,16c-2.2,2-5,3.9-8.1,4.5c-1.4,0.3-3.1,0-4.2-1c-1.1-0.8-1.5-2.2-1.5-3.6
				c-0.1-1.8,0.3-3.6,0.7-5.4l2.2-6.7c1.5-3.9,3.2-8,3.9-12.1c0.3-1.3,0.6-2.8,0-3.9c-0.6-1.1-1.8-1-2.8-0.6
				c-1.3,0.6-2.2,1.7-3.3,2.5c-1.3,1.4-2.7,2.7-3.8,4l-5.6,6.6l-2.1,2.5c-0.8,1-2.7,1.1-2.9-0.4c-0.3-1.1,0.7-1.8,1.3-2.5l2.2-2.7
				c2.5-2.9,4.9-5.9,7.5-8.5c2-2,4.2-4.3,7-4.9c1.4-0.3,2.8,0,3.9,0.7c1.4,1.1,2,2.7,2,4.3c0.3,4.2-1.5,8.7-2.9,12.6
				c-1.5,3.9-3.2,8-4,12c-0.1,1.1-0.4,2.7,0.1,3.6c0.6,0.7,2,0.4,2.7,0.3c2.2-0.7,4.2-2.2,5.9-3.6c5.2-4.6,9.5-10.2,13.7-15.8
				c2.1-2.9,4.2-5.9,6.1-8.9c0.4-0.7,0.8-1.4,1.4-2.1c0.4-0.7,0.8-1.4,1.7-1.4c1.3-0.1,1.8,1.3,1.4,2.4l-11.9,29.4
				c5.4-5,10.7-10.5,15.6-16.3C259.6,297.9,260.8,298.1,261.4,298.9z M235.4,326c-4.6,3.8-9.5,7.3-13.8,11.6
				c-2.7,2.7-5.2,5.7-6.7,9.2c-0.8,1.8-1.8,4.5-0.7,6.4c1,1.7,3.2,1.4,4.7,0.7c1.4-0.4,2.5-1.3,3.5-2.2c2.5-2.4,4.2-5.4,5.6-8.4
				c2.1-4,3.8-8.2,5.4-12.4C234.1,329.2,234.7,327.7,235.4,326z"/>
		</g>
		<g>
			<g>
				<path fill="#FFFFFF" d="M497.8,523.4c-0.3,1.4-1.4,2.2-2,3.1c-2.8,3.1-5.6,6.1-8.1,9.2c-6.1,7-12.3,14.5-19.8,20.4
					c-5.3,4.5-12.6,8.4-19.5,5c-7.8-3.3-7.5-12.3-6.4-19.5c-5.3,6.7-11.7,13.4-19.3,17.3c-6.4,3.1-15.1,4.7-21.2,0.6
					c-5-3.3-7-9.5-7-15.3c0.3-7,3.1-14,6.4-20.1c4.2-8.4,10.3-15.6,17.3-22c5.6-5.3,12-10,19-13.4c8.6-4.2,18.4-6.4,27.9-5.3
					c1.7,0.3,3.3,0.6,5,1.1c4.5,1.4,0.6,7.5-0.6,10c-3.3,7.5-7,14.5-10.9,21.8c-1.1,2.2-2.5,4.5-3.9,6.7c-1.1,2.2-2.2,4.2-3.1,6.7
					c-1.4,4.2-2.8,8.4-3.6,12.8c-0.6,3.3-1.1,7.5,0.6,10.9c1.1,2.2,4.2,3.1,6.7,2.5c3.1-0.6,5.6-2.2,7.8-3.9
					c3.1-2.5,6.1-5.3,8.6-8.1c7.3-7.3,14-15.3,20.6-23.2C494.7,518.4,498.4,520.6,497.8,523.4z M431.4,544.3
					c5.3-5.3,9.8-11.7,14-18.1c1.4-1.7,2.2-3.6,3.1-5.6l2.5-5.3c1.4-3.6,3.1-7,4.7-10.3c2.8-5.3,5.6-10.3,8.6-15.3
					c-8.6-1.1-17.3,1.1-24.8,4.7c-7.3,3.6-13.4,8.6-19,14.2c-6.7,6.4-12.6,14-16.2,22.3c-2.2,5.3-4.2,12-2.8,17.9
					c0.6,2.5,2,5,4.5,6.1c3.1,1.1,6.7,0.6,9.8-0.3C421.9,553,426.9,548.8,431.4,544.3z"/>
				<path fill="#FFFFFF" d="M569.5,524.2l-2.8,3.3l-9.8,10.9c-5.3,6.1-10.9,12.3-17,17.6c-3.9,3.3-8.4,7-13.4,7.5
					c-7.8,0.8-11.2-7.3-10.3-13.7c1.4-8.9,7-17,11.7-24.6c2.5-4.2,5-8.1,7.5-12.6c1.4-2.8,3.9-7,3.6-10.3c-0.3-2-6.7-1.1-8.1-1.1
					c-3.6-0.3-7.3-1.1-8.6-5c-6.1,7.8-12.8,15.1-19.3,22.3l-5.3,5.6c-1.4,1.4-2.8,2.5-4.7,1.4c-4.7-2.5,2-7.8,3.9-9.8
					c5.6-5.9,10.9-12,16.2-18.1l8.9-10.9l4.2-4.7c2-2.5,5.9-0.8,5.6,2.2c-0.3,2-1.7,3.6-2.5,5.6c-0.3,1.1-0.8,2-0.8,3.1
					c-0.3,1.4-0.3,1.7,1.4,2c3.6,0.3,7.3-0.6,10.6,0.8c3.9,1.4,5.3,5.3,4.7,8.9c-0.8,3.9-2.5,7.8-4.5,11.2c-2.2,4.5-5,8.4-7.5,12.6
					c-3.9,6.7-8.9,13.7-10.6,21.5c-0.3,2.2-0.6,6.4,2.2,7.3c1.7,0.6,4.2-0.8,5.6-1.7c5.9-3.6,10.6-8.9,15.3-14l19.3-21.5
					C567.8,517,572.3,521.2,569.5,524.2z"/>
				<path fill="#FFFFFF" d="M660.2,523.4c-0.3,1.4-1.4,2.2-2,3.1c-2.8,3.1-5.6,6.1-8.1,9.2c-6.1,7-12.3,14.5-19.8,20.4
					c-5.3,4.5-12.6,8.4-19.5,5c-7.8-3.3-7.5-12.3-6.4-19.5c-5.3,6.7-11.7,13.4-19.3,17.3c-6.4,3.1-15.1,4.7-21.2,0.6
					c-5-3.3-7-9.5-7-15.3c0.3-7,3.1-14,6.4-20.1c4.2-8.4,10.3-15.6,17.3-22c5.6-5.3,12-10,19-13.4c8.7-4.2,18.4-6.4,27.9-5.3
					c1.7,0.3,3.3,0.6,5,1.1c4.5,1.4,0.6,7.5-0.6,10c-3.3,7.5-7,14.5-10.9,21.8c-1.1,2.2-2.5,4.5-3.9,6.7c-1.1,2.2-2.2,4.2-3.1,6.7
					c-1.4,4.2-2.8,8.4-3.6,12.8c-0.6,3.3-1.1,7.5,0.6,10.9c1.1,2.2,4.2,3.1,6.7,2.5c3.1-0.6,5.6-2.2,7.8-3.9
					c3.1-2.5,6.1-5.3,8.6-8.1c7.3-7.3,14-15.3,20.6-23.2C657.1,518.4,660.7,520.6,660.2,523.4z M593.8,544.3
					c5.3-5.3,9.8-11.7,14-18.1c1.4-1.7,2.2-3.6,3.1-5.6l2.5-5.3c1.4-3.6,3.1-7,4.7-10.3c2.8-5.3,5.6-10.3,8.7-15.3
					c-8.7-1.1-17.3,1.1-24.8,4.7c-7.3,3.6-13.4,8.6-19,14.2c-6.7,6.4-12.6,14-16.2,22.3c-2.2,5.3-4.2,12-2.8,17.9
					c0.6,2.5,2,5,4.5,6.1c3.1,1.1,6.7,0.6,9.8-0.3C584.3,553,589.3,548.8,593.8,544.3z"/>
			</g>
			<g>
				<path fill="#FFFFFF" d="M318.1,560.2c11.3-15.7,11.6-35.7,9.4-54.2c-2.9-24.4-10.4-48.1-17.1-71.6
					c-12.7-44.9-30.5-100.9-4.6-144.6c9.2-15.6,23.9-26.9,39.8-35.1c1.4-0.7-2-0.3-2.6,0c-106.7,54.8-20.3,181.4-17.8,266.1
					c0.4,14.1-2.1,28.4-10.4,40C314.7,561.1,317.6,561,318.1,560.2L318.1,560.2z"/>
			</g>
			<path fill="#FFFFFF" d="M328.2,638.9c-18.7-23.1-20.7-50.2-10.1-77.5c0.7-1.8-2.7-1.7-3.2-0.3c-9.8,25.4-9.1,50.7,5.6,72.8
				c2.6,1.9,5.3,3.7,8,5.4C328.4,639.2,328.3,639,328.2,638.9z"/>
			<path fill="#FFFFFF" d="M343.7,254.1c-11.7,11.6-15.9,26.1-13.8,42.2c4,31.2,25.6,58.6,38.4,86.7c11.7,25.5,20.1,53.1,20.9,81.3
				c0.5,18-3.1,36.1-11.9,51.9c-10.7,19.3-29.4,32.1-49.6,39.9c-18.4,7.1-41.4,10.8-59.4,0.6c-17.7-10.1-29.6-32.6-36.7-52.2
				c3.1,12.4,7.2,24.4,12.2,35.8c7,11.2,17.2,20,33,24.8c25.8,7.7,57.3-5.8,79.2-20.1c49.4-32.1,45.9-94.1,28.3-143.4
				c-6.6-18.4-15.6-35.7-24.9-52.9c-10.7-19.7-22.6-41-22.6-64.1c0-13.1,6.3-23.7,15.3-32.7c7.1-7,16.5-12.4,23.6-2.8
				c11.4,15.6,2.1,40.5-7.8,54.2c-0.6,0.8,6.2,0.5,7.5-1.3c8.4-11.6,13.2-25.6,12.5-40c-0.5-9.2-4.7-19.9-14.7-21.6
				c-1.6-0.3-3.2-0.3-4.7-0.2c-6.3,2.4-12.4,5.2-18.4,8.1C347.8,250.2,345.7,252.1,343.7,254.1z"/>
		</g>
	</g>
</g>
<g id="Layer_1">
</g>
</svg>
