<?xml version="1.0" encoding="utf-8"?>
<!-- Generator: Adobe Illustrator 18.1.1, SVG Export Plug-In . SVG Version: 6.00 Build 0)  -->
<!DOCTYPE svg PUBLIC "-//W3C//DTD SVG 1.1//EN" "http://www.w3.org/Graphics/SVG/1.1/DTD/svg11.dtd">
<svg version="1.1" xmlns="http://www.w3.org/2000/svg" xmlns:xlink="http://www.w3.org/1999/xlink" x="0px" y="0px"
	 viewBox="0 0 1080 1080" enable-background="new 0 0 1080 1080" xml:space="preserve">
<g id="Layer_2">
	<rect fill="#FFCD05" width="1080" height="1080"/>
</g>
<g id="Layer_1">
	<g>
		<g>
			<circle fill="#FFCD05" cx="540" cy="540" r="320"/>
		</g>
		<g>
			<g>
				<circle fill="#005194" cx="581" cy="533.5" r="7.7"/>
			</g>
			<g>
				<g>
					<g>
						<rect x="531.5" y="363.4" fill="#005194" width="16.9" height="110.3"/>
					</g>
					<g>
						<polygon fill="#005194" points="695.5,482.2 384.5,482.2 384.5,326.7 401.4,326.7 401.4,465.2 678.6,465.2 678.6,326.7 
							695.5,326.7 						"/>
					</g>
				</g>
				<g>
					<polygon fill="#005194" points="558.6,752 458,752 458,501 474.9,501 474.9,735.1 558.6,735.1 					"/>
				</g>
				<g>
					<path fill="#005194" d="M581,574.6c-22.6,0-41-18.4-41-41c0-22.6,18.4-41,41-41c22.6,0,41,18.4,41,41
						C622,556.2,603.6,574.6,581,574.6z M581,509.4c-13.3,0-24.1,10.8-24.1,24.1c0,13.3,10.8,24.1,24.1,24.1
						c13.3,0,24.1-10.8,24.1-24.1C605.1,520.3,594.3,509.4,581,509.4z"/>
				</g>
				<g>
					<rect x="605.1" y="533.5" fill="#005194" width="16.9" height="219.8"/>
				</g>
				<g>
					<rect x="488.8" y="525.1" fill="#005194" width="37.9" height="16.9"/>
				</g>
			</g>
		</g>
	</g>
</g>
</svg>
