<?xml version="1.0" encoding="utf-8"?>
<!-- Generator: Adobe Illustrator 22.0.1, SVG Export Plug-In . SVG Version: 6.00 Build 0)  -->
<!DOCTYPE svg PUBLIC "-//W3C//DTD SVG 1.1//EN" "http://www.w3.org/Graphics/SVG/1.1/DTD/svg11.dtd">
<svg version="1.1" id="Logga_2018" xmlns="http://www.w3.org/2000/svg" xmlns:xlink="http://www.w3.org/1999/xlink" x="0px" y="0px"
	 width="680.3px" height="680.3px" viewBox="0 0 680.3 680.3" style="enable-background:new 0 0 680.3 680.3;" xml:space="preserve"
	>
<style type="text/css">
	.st0{fill:#FFFFFF;}
</style>
<g id="bg">
	<g>
		<rect class="st0" width="680.3" height="680.3"/>
	</g>
</g>
<g>
	<path d="M501.1,272.1c-8.8-20.8-21.4-39.6-37.5-55.6c-16.1-16.1-34.8-28.7-55.6-37.5c-21.5-9.2-44.4-13.8-68.1-13.8
		c-23.6,0-46.6,4.6-68.1,13.8c-20.8,8.8-39.6,21.4-55.6,37.5c-16.1,16.1-28.7,34.8-37.5,55.6c-9.1,21.6-13.8,44.5-13.8,68.1
		c0,5.7,0.3,11.4,0.8,17c0,0.1,0,0.2,0,0.3c0.2,4,0.8,8,1.6,12c2.2,13.3,6,26.4,11.4,38.9c8.8,20.9,21.4,39.6,37.5,55.7
		c16.1,16.1,34.8,28.7,55.6,37.5c21.6,9.1,44.5,13.8,68.1,13.8c23.6,0,46.6-4.6,68.1-13.8c20.8-8.8,39.6-21.4,55.6-37.5
		c16.1-16.1,28.7-34.8,37.5-55.7c9.1-21.6,13.8-44.5,13.8-68.2C514.9,316.6,510.3,293.6,501.1,272.1z M252.4,227
		c2,18.6,10.4,35.4,19.4,51.5c9.6,17,19.9,33.8,24.3,53.1c4.5,19.8,2.5,42.3-8.3,59.7c-10.6,17.1-30.4,27.4-50.7,28.9
		c10-20.1,14.2-38.7,13.1-57.8c-1.1-19-7.2-35.5-13.6-53c-7.1-19.3-14.5-39.2-14.5-62.9c0-26.5,19.1-42.8,34.8-51.7
		C252.1,204.7,251.5,218,252.4,227z M230,210.5c-7.5,9.3-12.9,21.2-12.9,36c0,24.6,7.5,45,14.8,64.7c12,32.4,23.3,63.2-0.5,109.2
		c-11.8-0.1-23.4-3.2-33.1-9.8c-13.6-9.2-22.6-25.3-26.1-41.7c-1.6-9.3-2.4-18.8-2.4-28.5C169.9,288.2,193.2,241.7,230,210.5z
		 M180.4,399.6c0.9,1.3,1.8,2.5,2.8,3.7c11.3,13.9,28.2,20.9,45.7,21.8c-0.1,0.2-0.2,0.3-0.2,0.4c-5.5,9.8-10.2,19.2-10.9,33.1
		C201.5,441.9,188.7,421.8,180.4,399.6z M339.9,510.4c-45.5,0-86.8-17.8-117.3-46.9c-0.2-15.4,4.4-24.8,10.4-35.5
		c0.5-0.9,1-1.9,1.5-2.8c10.9-0.3,21.7-2.9,31.4-7.6c34.3-16.8,43.6-58.9,33.5-93.2c-10.7-36.5-42.5-65.9-42.4-105.6
		c0-10.4,2.6-25.3,12.9-30.8c6.9-3.6,15.6,0.2,17.6,7.6c2.6,9.6-1.6,21.7-5.8,30.4c-1.4,2.9,2.9,5.4,4.3,2.5c3.9-8,6.8-17,7.1-25.9
		c0.4-9.9-5.3-19.4-14.7-20.9c19.1-7.4,39.8-11.5,61.5-11.5c93.9,0,170.1,76.1,170.1,170.1c0,49-21.9,65.7-27.4,71.2
		c-2,2-4.8,3.9-7.1,5.8c-1.7,1.3-3.6,2.6-5.9,3c-1.9,0.4-4.3-0.2-5.1-1.9c-1.2-2.5-0.8-5.7-0.4-8.2c0.6-3.4,1.6-6.5,2.7-9.7
		c0.6-1.9,1.5-3.4,2.3-5.1c1.1-1.7,2.2-3.4,3-5.1c2.9-5.5,5.7-10.8,8.2-16.5c0.8-1.9,3.8-6.5,0.4-7.6c-1.3-0.4-2.5-0.6-3.8-0.8
		c-7.2-0.9-14.6,0.8-21.1,4c-5.2,2.5-10.1,6.1-14.3,10.1c-4.3,4-8.1,8.4-11.1,13.2c-0.2,0.1-0.4,0.3-0.6,0.5l-14.6,16.2
		c-3.6,3.8-7.2,7.8-11.6,10.5c-1,0.7-2.9,1.7-4.2,1.3c-2.1-0.6-1.9-3.8-1.7-5.5c1.3-5.9,5-11.1,8-16.2c1.9-3.2,4-6.1,5.7-9.5
		c1.5-2.5,2.8-5.4,3.4-8.4c0.4-2.7-0.6-5.6-3.6-6.7c-2.5-1-5.3-0.4-8-0.6c-1.3-0.2-1.3-0.4-1.1-1.5c0-0.8,0.4-1.5,0.6-2.3
		c0.6-1.5,1.7-2.7,1.9-4.2c0.2-2.3-2.7-3.6-4.2-1.7l-3.2,3.6l-6.7,8.2c-4,4.6-8,9.3-12.2,13.7c-0.7,0.7-2.4,2.1-3.4,3.5
		c0,0-0.1,0.1-0.1,0.1c-5.1,5.9-10.1,12-15.6,17.5c-1.9,2.1-4.2,4.2-6.5,6.1c-1.7,1.3-3.6,2.6-5.9,3c-1.9,0.4-4.3-0.2-5.1-1.9
		c-1.2-2.5-0.8-5.7-0.4-8.2c0.6-3.4,1.6-6.5,2.7-9.7c0.6-1.9,1.5-3.4,2.3-5.1c1.1-1.7,2.2-3.4,3-5.1c2.9-5.5,5.7-10.8,8.2-16.5
		c0.8-1.9,3.8-6.5,0.4-7.6c-1.3-0.4-2.5-0.6-3.8-0.8c-7.2-0.9-14.6,0.8-21.1,4c-5.2,2.5-10.1,6.1-14.3,10.1
		c-5.3,4.9-9.9,10.4-13.1,16.7c-2.6,4.7-4.7,9.9-4.9,15.2c0,4.4,1.5,9.1,5.3,11.6c4.6,3.2,11.1,1.9,16-0.4c5.7-3,10.6-8,14.6-13.1
		c-0.8,5.5-1,12.3,4.9,14.8c5.3,2.5,10.8-0.4,14.8-3.8c5.7-4.4,10.4-10.1,15-15.4c1.9-2.4,4-4.7,6.1-7c0.3-0.4,0.7-0.8,1.1-1.3
		c0.1-0.1,0.3-0.3,0.4-0.4l4-4.2c4.9-5.5,10-11,14.6-16.9c1,3,3.8,3.6,6.5,3.8c1,0,5.9-0.7,6.1,0.8c0.3,2.5-1.6,5.7-2.7,7.8
		c-1.9,3.4-3.8,6.3-5.7,9.5c-3.6,5.7-7.8,11.9-8.9,18.6c-0.6,4.8,1.9,10.9,7.8,10.3c3.8-0.4,7.1-3.2,10.1-5.7
		c4.7-4,8.9-8.7,12.9-13.3l0.6-0.7c-0.4,1.7-0.7,3.3-0.7,5c0,4.4,1.5,9.1,5.3,11.6c4.6,3.2,11.1,1.9,16-0.4c5.7-3,10.6-8,14.6-13.1
		c-0.8,5.5-1,12.3,4.9,14.8c5.3,2.5,10.8-0.4,14.8-3.8c3.2-2.5,12.9-10.2,20.6-21.7C475.8,463.9,413.3,510.4,339.9,510.4z
		 M431,401.6c2.7-6.4,7.1-12,12.2-16.9c4.2-4.3,8.8-8.1,14.3-10.8c5.7-2.8,12.3-4.4,18.8-3.6c-2.3,3.8-4.4,7.6-6.5,11.6
		c-1.3,2.5-2.5,5.1-3.6,7.8l-1.9,4c-0.6,1.5-1.2,2.9-2.3,4.2c-3.1,4.8-6.5,9.7-10.5,13.7c-3.4,3.4-7.2,6.5-11.8,7.9
		c-2.3,0.6-5.1,1-7.4,0.2c-1.9-0.8-3-2.7-3.4-4.6C427.8,410.7,429.3,405.6,431,401.6z M339.2,397.9c-3.1,4.8-6.5,9.7-10.5,13.7
		c-3.4,3.4-7.2,6.5-11.8,7.9c-2.3,0.6-5.1,1-7.4,0.2c-1.9-0.8-3-2.7-3.4-4.6c-1.1-4.4,0.4-9.5,2.1-13.5c2.7-6.4,7.1-12,12.2-16.9
		c4.2-4.3,8.8-8.1,14.3-10.8c5.7-2.8,12.3-4.4,18.8-3.6c-2.3,3.8-4.4,7.6-6.5,11.6c-1.3,2.5-2.5,5.1-3.6,7.8l-1.9,4
		C340.9,395.2,340.3,396.6,339.2,397.9z"/>
	<path d="M168.4,245.6c3.8-3.3,7.3-6.8,10.7-10.3l4.8-5.5c0.7-0.8,1.6-1.7,0.9-2.7c-0.5-0.8-1.7-0.9-2.3-0.1
		c-4.6,5.5-9.5,10.6-14.6,15.3l11.1-27.5c0.4-1-0.1-2.3-1.3-2.2c-0.8,0-1.2,0.7-1.6,1.3c-0.5,0.7-0.9,1.3-1.3,2
		c-1.8,2.9-3.8,5.6-5.7,8.3c-3.9,5.2-8,10.4-12.8,14.7c-1.6,1.3-3.4,2.7-5.5,3.4c-0.7,0.1-2,0.4-2.5-0.3c-0.5-0.9-0.3-2.3-0.1-3.4
		c0.8-3.8,2.3-7.6,3.8-11.2c1.3-3.7,3-7.8,2.7-11.7c0-1.6-0.5-3-1.8-4c-1-0.7-2.3-0.9-3.7-0.7c-2.6,0.5-4.7,2.7-6.5,4.6
		c-2.5,2.5-4.7,5.2-7,8l-2.1,2.5c-0.2,0.2-0.4,0.5-0.6,0.7c-0.1,0.1-0.2,0.1-0.3,0.2c-2,2.2-4.2,4.4-6.8,5.7c-2,0.8-4,0.8-6,0
		c2.1-3.9,3.9-8.2,4.3-12.6c0.3-3,0.1-7.7-3-9.4c-3.1-1.6-6.3,1.4-7.7,3.9c-1.6,3.1-2.1,6.8-1.8,10.2c0.3,3.4,1.6,6.9,4.3,9
		c-2,3.3-4.6,6.7-8,8.5c-2.5,1.6-6.5,2.1-8.5-0.5c-1.7-2.5-1.2-6-0.8-8.7c0.5-3.5,1.6-6.9,2.6-10.2c0.4-1,0.7-2.1,1-3l0.5-1.6
		c0.3-0.8,0.7-1.2,1-1.7c1.4-1.7,2.9-3.3,4.2-5c4-4.7,8.2-9.4,12-14.2c2.6-3.3,5.1-6.5,7.2-10.2c1.7-2.6,3.3-5.5,3.9-8.6
		c0.3-1.4,0.4-3-0.1-4.3c-0.7-1.7-2.3-3-4.2-3.3c-1.8-0.1-3.4,0.7-4.7,1.8c-3,2.5-5.1,6.3-6.9,9.6c-3.5,6.5-6.5,13.4-9.4,20.2
		c-1.7,3.9-3.3,7.8-4.7,11.9c-0.3,0.4-0.4,0.9-0.5,1.3c-0.4,0.4-0.8,0.8-1,1.3l-2.2,2.3c-1.2,1.6-2.6,3.1-3.9,4.7l-2,2.3
		c-0.9,0.9-0.4,2.6,1.2,2.5c0.9-0.1,1.6-1.2,2.1-1.8l3.3-3.8c-1.2,3.7-2.2,7.6-2.5,11.3c-0.4,3.4-0.1,7.3,2.6,9.7
		c2.5,2.2,6.1,2.5,9.3,1.3c3.4-1.3,6.1-3.9,8.3-6.8l2.3-3.3c0.3-0.4,0.1-0.4,0.7-0.3l0.8,0.3c0.7,0.3,1.2,0.4,1.8,0.4
		c2.1,0.4,4.2,0,6-0.9c2.2-1.2,4-2.7,5.7-4.4c0.5-0.5,1.2-1,1.6-1.6c0.1-0.1,0.2-0.2,0.3-0.3l2-2.3l5.2-6.1c1-1.3,2.3-2.5,3.5-3.8
		c1-0.8,2-1.8,3.1-2.3c0.9-0.4,2.1-0.5,2.6,0.5c0.5,1,0.3,2.5,0,3.7c-0.7,3.9-2.2,7.7-3.7,11.3l-2.1,6.3c-0.4,1.7-0.8,3.4-0.7,5.1
		c0,1.3,0.4,2.6,1.4,3.4c1,0.9,2.6,1.2,3.9,0.9c2.9-0.5,5.5-2.3,7.6-4.2c5.1-4.3,9.3-9.6,13.2-15c-2.7,6.5-5.3,13-8,19.6l-0.4,0.9
		c-0.1,0.4-0.7,0.7-1,0.9l-2.6,2.3l-5.3,4.3c-3.4,2.6-6.8,5.3-9.6,8.5c-3.3,3.5-6.8,8.1-6.9,13c0,3.7,2.5,6.5,6.1,6.3
		c3.1-0.1,5.9-2.1,7.8-4.3c2.2-2.3,3.9-5.3,5.3-8.3c1.7-3.7,3.3-7.4,4.8-11.2c0.7-1.6,1.3-3.1,1.8-4.7c0.4-0.9,0.8-1.7,1-2.6
		c0.4-0.9,0.7-2.1,1.4-2.7L168.4,245.6z M108.3,204.5c3.1-7.4,6.3-14.9,10.3-21.9c1.3-2.5,2.9-5.1,4.8-7c0.7-0.7,1.3-1.3,2.1-1.6
		c0.9-0.4,1.8-0.1,2.5,0.5c0.5,0.5,0.7,1.4,0.5,2.2c0,2.1-1,4.2-2.1,6c-1.3,2.6-3,5.1-4.7,7.4c-3.3,4.7-6.9,9.1-10.6,13.4l-4.7,5.3
		L108.3,204.5z M117.4,231.1c-2.5-2.3-3-6-2.9-9.1c0.1-1.8,0.5-3.7,1.2-5.3c0.5-1.2,1.3-2.5,2.5-3.1c1.2-0.7,2-0.5,2.5,0.7
		c0.7,1.6,0.7,3.5,0.7,5.1C120.9,223.4,119.2,227.5,117.4,231.1z M158.7,256.9c-1.6,3.9-3.1,7.8-5.1,11.6c-1.3,2.7-2.9,5.6-5.2,7.8
		c-0.9,0.9-2,1.7-3.3,2.1c-1.4,0.7-3.5,0.9-4.4-0.7c-1-1.8-0.1-4.3,0.7-6c1.4-3.3,3.8-6.1,6.3-8.6c4-4,8.6-7.3,12.9-10.8
		C159.9,253.9,159.3,255.4,158.7,256.9z"/>
</g>
</svg>
